<svg width="22" height="20" viewBox="0 0 22 20" fill="none" xmlns="http://www.w3.org/2000/svg">
<path d="M14.85 14.4444C14.5383 14.4444 14.2771 14.338 14.0662 14.125C13.8554 13.912 13.75 13.6481 13.75 13.3333V8.88889C13.75 8.57407 13.8554 8.31019 14.0662 8.09722C14.2771 7.88426 14.5383 7.77778 14.85 7.77778H17.6C17.9117 7.77778 18.1729 7.88426 18.3837 8.09722C18.5946 8.31019 18.7 8.57407 18.7 8.88889V13.3333C18.7 13.6481 18.5946 13.912 18.3837 14.125C18.1729 14.338 17.9117 14.4444 17.6 14.4444H14.85ZM15.4 12.7778H17.05V9.44444H15.4V12.7778ZM3.3 14.4444V11.6667C3.3 11.3519 3.40542 11.088 3.61625 10.875C3.82708 10.662 4.08833 10.5556 4.4 10.5556H6.6V9.44444H3.3V7.77778H7.15C7.46167 7.77778 7.72292 7.88426 7.93375 8.09722C8.14458 8.31019 8.25 8.57407 8.25 8.88889V10.5556C8.25 10.8704 8.14458 11.1343 7.93375 11.3472C7.72292 11.5602 7.46167 11.6667 7.15 11.6667H4.95V12.7778H8.25V14.4444H3.3ZM10.175 10V8.33333H11.825V10H10.175ZM10.175 13.8889V12.2222H11.825V13.8889H10.175ZM2.2 20C1.595 20 1.07708 19.7824 0.64625 19.3472C0.215417 18.912 0 18.3889 0 17.7778V4.44444C0 3.83333 0.215417 3.31019 0.64625 2.875C1.07708 2.43981 1.595 2.22222 2.2 2.22222H5.5V0H7.7V2.22222H14.3V0H16.5V2.22222H19.8C20.405 2.22222 20.9229 2.43981 21.3538 2.875C21.7846 3.31019 22 3.83333 22 4.44444V17.7778C22 18.3889 21.7846 18.912 21.3538 19.3472C20.9229 19.7824 20.405 20 19.8 20H2.2ZM2.2 17.7778H10.175V16.1111H11.825V17.7778H19.8V4.44444H11.825V6.11111H10.175V4.44444H2.2V17.7778Z" fill="#316536"/>
</svg>
